<svg width="1200" height="700" viewBox="0 0 1200 700" fill="none" xmlns="http://www.w3.org/2000/svg">
  <rect width="1200" height="700" fill="#02040A"/>
  <rect x="80" y="100" width="1040" height="500" rx="18" fill="#0F172A" stroke="#334155" stroke-width="3"/>
  <rect x="140" y="150" width="440" height="400" rx="12" fill="#111827" stroke="#22D3EE" stroke-width="3"/>
  <rect x="620" y="150" width="440" height="400" rx="12" fill="#111827" stroke="#3B82F6" stroke-width="3"/>
  <text x="360" y="210" fill="#E2E8F0" font-size="30" text-anchor="middle" font-family="Arial, sans-serif">SSH Baseline</text>
  <text x="840" y="210" fill="#E2E8F0" font-size="30" text-anchor="middle" font-family="Arial, sans-serif">Control Gates</text>
  <rect x="180" y="250" width="360" height="42" rx="8" fill="#1E293B"/>
  <rect x="180" y="314" width="360" height="42" rx="8" fill="#1E293B"/>
  <rect x="180" y="378" width="360" height="42" rx="8" fill="#1E293B"/>
  <text x="200" y="278" fill="#67E8F9" font-size="20" font-family="Arial, sans-serif">✓ Key-only authentication</text>
  <text x="200" y="342" fill="#67E8F9" font-size="20" font-family="Arial, sans-serif">✓ Least-privilege sudo roles</text>
  <text x="200" y="406" fill="#67E8F9" font-size="20" font-family="Arial, sans-serif">✓ Narrowed management paths</text>
  <circle cx="780" cy="310" r="42" fill="#1D4ED8"/>
  <circle cx="900" cy="310" r="42" fill="#0891B2"/>
  <circle cx="840" cy="420" r="42" fill="#4338CA"/>
  <line x1="780" y1="310" x2="900" y2="310" stroke="#22D3EE" stroke-width="4"/>
  <line x1="840" y1="420" x2="780" y2="310" stroke="#22D3EE" stroke-width="4"/>
  <line x1="840" y1="420" x2="900" y2="310" stroke="#22D3EE" stroke-width="4"/>
  <text x="600" y="72" fill="#E2E8F0" font-size="40" text-anchor="middle" font-family="Arial, sans-serif">SSH Hardening Baseline Controls</text>
</svg>
