<svg width="1200" height="700" viewBox="0 0 1200 700" fill="none" xmlns="http://www.w3.org/2000/svg">
  <rect width="1200" height="700" fill="#02040A"/>
  <rect x="120" y="110" width="960" height="480" rx="18" fill="#0F172A" stroke="#334155" stroke-width="3"/>
  <rect x="180" y="170" width="260" height="360" rx="12" fill="#111827" stroke="#3B82F6" stroke-width="3"/>
  <rect x="500" y="170" width="260" height="360" rx="12" fill="#111827" stroke="#22D3EE" stroke-width="3"/>
  <rect x="820" y="170" width="200" height="360" rx="12" fill="#111827" stroke="#6366F1" stroke-width="3"/>
  <circle cx="310" cy="250" r="38" fill="#1D4ED8"/>
  <rect x="270" y="300" width="80" height="140" rx="10" fill="#2563EB"/>
  <path d="M600 220L645 285H555L600 220Z" fill="#22D3EE"/>
  <rect x="560" y="300" width="80" height="120" rx="10" fill="#0891B2"/>
  <rect x="885" y="230" width="70" height="90" rx="8" fill="#6366F1"/>
  <rect x="860" y="340" width="120" height="120" rx="10" fill="#4338CA"/>
  <line x1="440" y1="350" x2="500" y2="350" stroke="#38BDF8" stroke-width="4" stroke-dasharray="8 8"/>
  <line x1="760" y1="350" x2="820" y2="350" stroke="#22D3EE" stroke-width="4" stroke-dasharray="8 8"/>
  <text x="600" y="80" fill="#E2E8F0" font-size="40" text-anchor="middle" font-family="Arial, sans-serif">Zero-Trust Bastion Access Pattern</text>
  <text x="600" y="635" fill="#94A3B8" font-size="26" text-anchor="middle" font-family="Arial, sans-serif">Identity • Bastion • Restricted Paths • Session Traceability</text>
</svg>
